HIERARCHY
ROOT hip
{
  OFFSET 0 0 0
  CHANNELS 6 Xposition Yposition Zposition Zrotation Yrotation Xrotation
  JOINT abdomen
  {
    OFFSET 0 20.6881 -0.73152
    CHANNELS 3 Zrotation Xrotation Yrotation
    JOINT chest
    {
      OFFSET 0 11.7043 -0.48768
      CHANNELS 3 Zrotation Xrotation Yrotation
      JOINT neck
      {
        OFFSET 0 22.1894 -2.19456
        CHANNELS 3 Zrotation Xrotation Yrotation
        JOINT head
        {
          OFFSET -0.24384 7.07133 1.2192
          CHANNELS 3 Zrotation Xrotation Yrotation
          JOINT leftEye
          {
            OFFSET 4.14528 8.04674 8.04672
            CHANNELS 3 Zrotation Xrotation Yrotation
            End Site
            {
              OFFSET 1 0 0
            }
          }
          JOINT rightEye
          {
            OFFSET -3.6576 8.04674 8.04672
            CHANNELS 3 Zrotation Xrotation Yrotation
            End Site
            {
              OFFSET 1 0 0
            }
          }
        }
      }
      JOINT rCollar
      {
        OFFSET -2.68224 19.2634 -4.8768
        CHANNELS 3 Zrotation Xrotation Yrotation
        JOINT rShldr
        {
          OFFSET -8.77824 -1.95073 1.46304
          CHANNELS 3 Zrotation Xrotation Yrotation
          JOINT rForeArm
          {
            OFFSET -28.1742 -1.7115 0.48768
            CHANNELS 3 Zrotation Xrotation Yrotation
            JOINT rHand
            {
              OFFSET -22.5879 0.773209 7.07136
              CHANNELS 3 Zrotation Xrotation Yrotation
              JOINT rThumb1
              {
                OFFSET -1.2192 -0.487915 3.41376
                CHANNELS 3 Zrotation Xrotation Yrotation
                JOINT rThumb2
                {
                  OFFSET -3.37035 -0.52449 3.41376
                  CHANNELS 3 Zrotation Xrotation Yrotation
                  End Site
                  {
                    OFFSET -1.78271 -1.18214 1.43049
                  }
                }
              }
              JOINT rIndex1
              {
                OFFSET -7.75947 0.938293 5.60832
                CHANNELS 3 Zrotation Xrotation Yrotation
                JOINT rIndex2
                {
                  OFFSET -2.54057 -0.884171 1.56538
                  CHANNELS 3 Zrotation Xrotation Yrotation
                  End Site
                  {
                    OFFSET -1.62519 -0.234802 1.16502
                  }
                }
              }
              JOINT rMid1
              {
                OFFSET -8.24714 1.18213 3.41376
                CHANNELS 3 Zrotation Xrotation Yrotation
                JOINT rMid2
                {
                  OFFSET -3.10165 -0.590103 1.0647
                  CHANNELS 3 Zrotation Xrotation Yrotation
                  End Site
                  {
                    OFFSET -2.48547 -0.328903 0.83742
                  }
                }
              }
              JOINT rRing1
              {
                OFFSET -8.82822 0.546677 1.51678
                CHANNELS 3 Zrotation Xrotation Yrotation
                JOINT rRing2
                {
                  OFFSET -2.60934 -0.819778 -0.0198488
                  CHANNELS 3 Zrotation Xrotation Yrotation
                  End Site
                  {
                    OFFSET -2.33842 -0.294052 0.168128
                  }
                }
              }
              JOINT rPinky1
              {
                OFFSET -8.27202 -0.0477905 -0.4584
                CHANNELS 3 Zrotation Xrotation Yrotation
                JOINT rPinky2
                {
                  OFFSET -1.82734 -0.647385 -0.700984
                  CHANNELS 3 Zrotation Xrotation Yrotation
                  End Site
                  {
                    OFFSET -1.69225 -0.51767 -0.607171
                  }
                }
              }
            }
          }
        }
      }
      JOINT lCollar
      {
        OFFSET 2.68224 19.2634 -4.8768
        CHANNELS 3 Zrotation Xrotation Yrotation
        JOINT lShldr
        {
          OFFSET 8.77824 -1.95073 1.46304
          CHANNELS 3 Zrotation Xrotation Yrotation
          JOINT lForeArm
          {
            OFFSET 28.1742 -1.7115 0.48768
            CHANNELS 3 Zrotation Xrotation Yrotation
            JOINT lHand
            {
              OFFSET 22.5879 0.773209 7.07136
              CHANNELS 3 Zrotation Xrotation Yrotation
              JOINT lThumb1
              {
                OFFSET 1.2192 -0.487915 3.41376
                CHANNELS 3 Zrotation Xrotation Yrotation
                JOINT lThumb2
                {
                  OFFSET 3.37035 -0.52449 3.41376
                  CHANNELS 3 Zrotation Xrotation Yrotation
                  End Site
                  {
                    OFFSET 1.78271 -1.18214 1.43049
                  }
                }
              }
              JOINT lIndex1
              {
                OFFSET 7.75947 0.938293 5.60832
                CHANNELS 3 Zrotation Xrotation Yrotation
                JOINT lIndex2
                {
                  OFFSET 2.54057 -0.884171 1.56538
                  CHANNELS 3 Zrotation Xrotation Yrotation
                  End Site
                  {
                    OFFSET 1.62519 -0.234802 1.16502
                  }
                }
              }
              JOINT lMid1
              {
                OFFSET 8.24714 1.18213 3.41376
                CHANNELS 3 Zrotation Xrotation Yrotation
                JOINT lMid2
                {
                  OFFSET 3.10165 -0.590103 1.0647
                  CHANNELS 3 Zrotation Xrotation Yrotation
                  End Site
                  {
                    OFFSET 2.48547 -0.328903 0.83742
                  }
                }
              }
              JOINT lRing1
              {
                OFFSET 8.82822 0.546677 1.51678
                CHANNELS 3 Zrotation Xrotation Yrotation
                JOINT lRing2
                {
                  OFFSET 2.60934 -0.819778 -0.0198488
                  CHANNELS 3 Zrotation Xrotation Yrotation
                  End Site
                  {
                    OFFSET 2.33842 -0.294052 0.168128
                  }
                }
              }
              JOINT lPinky1
              {
                OFFSET 8.27202 -0.0477905 -0.4584
                CHANNELS 3 Zrotation Xrotation Yrotation
                JOINT lPinky2
                {
                  OFFSET 1.82734 -0.647385 -0.700984
                  CHANNELS 3 Zrotation Xrotation Yrotation
                  End Site
                  {
                    OFFSET 1.69225 -0.51767 -0.607171
                  }
                }
              }
            }
          }
        }
      }
    }
  }
  JOINT rButtock
  {
    OFFSET -8.77824 4.35084 1.2192
    CHANNELS 3 Zrotation Xrotation Yrotation
    JOINT rThigh
    {
      OFFSET 0 -1.70687 -2.19456
      CHANNELS 3 Zrotation Xrotation Yrotation
      JOINT rShin
      {
        OFFSET 0 -36.8199 0.73152
        CHANNELS 3 Zrotation Xrotation Yrotation
        JOINT rFoot
        {
          OFFSET 0.73152 -45.1104 -5.12064
          CHANNELS 3 Zrotation Xrotation Yrotation
          End Site
          {
            OFFSET -1.1221 -3.69964 12.103
          }
        }
      }
    }
  }
  JOINT lButtock
  {
    OFFSET 8.77824 4.35084 1.2192
    CHANNELS 3 Zrotation Xrotation Yrotation
    JOINT lThigh
    {
      OFFSET 0 -1.70687 -2.19456
      CHANNELS 3 Zrotation Xrotation Yrotation
      JOINT lShin
      {
        OFFSET 0 -36.8199 0.73152
        CHANNELS 3 Zrotation Xrotation Yrotation
        JOINT lFoot
        {
          OFFSET -0.73152 -45.1104 -5.12064
          CHANNELS 3 Zrotation Xrotation Yrotation
          End Site
          {
            OFFSET 1.1221 -3.69964 12.103
          }
        }
      }
    }
  }
}
MOTION
Frames:	10
Frame Time:	0.00833333
31.416002 84.7758 -22.56163 -31.953287 -79.701 40.24026 4.08127 -4.7721105 -11.055102 1.1632178 -8.876439 -3.156652 -3.3108776 17.268206 1.1385648 10.4649105 -14.611091 2.7707932 -0.0 0.0 -0.0 -0.0 0.0 -0.0 -0.0 0.0 -0.0 94.92039 56.3602 -12.462701 -28.367199 -37.4974 79.56559 -0.6012622 -21.22418 -3.1323335 -0.0 0.0 -0.0 -0.0 0.0 -0.0 -0.0 0.0 -0.0 7.7309012 5.4749126 0.41732216 -0.0 0.0 -0.0 2.9055667 0.9650755 0.103008196 -0.0 0.0 -0.0 10.278597 0.731881 0.026273511 -0.0 0.0 -0.0 2.2216635 -0.73345095 -0.208321 -0.0 0.0 -0.0 -88.9533 25.726791 13.709801 28.391695 -34.129395 -73.91449 1.090339 28.249043 -4.33104 -0.0 0.0 0.0 -0.0 0.0 0.0 -0.0 0.0 0.0 -7.7309012 5.4749126 -0.41732216 -0.0 0.0 0.0 -2.9055667 0.9650755 -0.103008196 -0.0 0.0 0.0 -10.278597 0.731881 -0.026273511 -0.0 0.0 0.0 -2.2216635 -0.73345095 0.208321 -0.0 0.0 -0.0 1.4491353 -18.387806 -0.04494077 -0.16308244 35.251297 0.7396157 -0.71342045 -6.8005004 -1.0964693 0.0 0.0 0.0 18.545404 -31.174488 32.1897 0.315677 46.562996 -1.9478121 23.131998 -19.621092 42.9545
31.399801 84.240005 -24.88673 -90.92905 -82.19304 97.90001 3.7018223 -3.4061544 -10.241193 1.3309896 -10.426813 -2.876366 -1.254088 15.586406 4.7125835 10.549985 -12.644687 9.556666 -0.0 0.0 -0.0 -0.0 0.0 -0.0 -0.0 0.0 0.0 92.159996 57.964104 -9.734541 -28.444595 -36.1324 77.1531 -0.44892633 -19.006187 -2.766015 -0.0 -0.0 -0.0 -0.0 -0.0 -0.0 -0.0 -0.0 -0.0 7.7309012 5.4749126 0.41732216 -0.0 -0.0 -0.0 2.9055667 0.9650755 0.103008196 -0.0 -0.0 -0.0 10.278597 0.731881 0.026273511 -0.0 -0.0 -0.0 2.2216635 -0.73345095 -0.208321 -0.0 0.0 0.0 -86.290504 20.77559 22.220304 28.436104 -35.83049 -76.710495 0.945325 26.679573 -4.0457153 -0.0 0.0 -0.0 -0.0 0.0 -0.0 -0.0 0.0 -0.0 -7.7309012 5.4749126 -0.41732216 -0.0 0.0 -0.0 -2.9055667 0.9650755 -0.103008196 -0.0 0.0 -0.0 -10.278597 0.731881 -0.026273511 -0.0 0.0 -0.0 -2.2216635 -0.73345095 0.208321 -0.0 0.0 -0.0 2.9710605 -19.996391 -5.163463 -0.13976578 34.339497 0.64772564 1.0853114 -8.635093 8.06747 0.0 0.0 0.0 24.666391 -31.427298 30.351498 0.51768744 51.50431 -1.7430739 15.336016 -14.899491 35.3994
31.1402 83.810905 -26.307232 -136.89441 -81.0156 141.59938 1.9018328 1.5023324 -8.635207 1.7584753 -11.311407 -2.2079282 -0.7964439 14.701286 6.412177 10.792092 -13.487606 13.122801 -0.0 0.0 -0.0 -0.0 0.0 -0.0 0.0 0.0 0.0 89.85989 55.01611 -7.624152 -28.330301 -33.2531 72.48519 0.05183316 -1.3601507 -0.19771619 0.0 0.0 -0.0 0.0 0.0 -0.0 0.0 0.0 -0.0 7.7309012 5.4749126 0.41732216 0.0 0.0 -0.0 2.9055667 0.9650755 0.103008196 0.0 0.0 -0.0 10.278597 0.731881 0.026273511 0.0 0.0 -0.0 2.2216635 -0.73345095 -0.208321 0.0 0.0 0.0 -85.0988 16.223501 27.586695 28.379904 -37.2956 -79.22159 0.7594939 23.951614 -3.579459 -0.0 0.0 0.0 -0.0 0.0 0.0 -0.0 0.0 0.0 -7.7309012 5.4749126 -0.41732216 -0.0 0.0 0.0 -2.9055667 0.9650755 -0.103008196 -0.0 0.0 0.0 -10.278597 0.731881 -0.026273511 -0.0 0.0 0.0 -2.2216635 -0.73345095 0.208321 -0.0 0.0 -0.0 2.8207045 -17.658289 -6.8248897 -0.16721395 35.349304 0.5899048 2.2916923 -10.795004 11.7417965 0.0 0.0 0.0 21.94421 -28.140293 21.227804 0.67256236 53.92932 -1.5568779 9.62887 -14.4046955 24.044502
29.979 82.8841 -26.71153 -127.06697 -79.53403 130.94998 5.669156 2.5375783 -5.825769 1.7518213 -10.7234955 -1.3448087 -1.8793932 13.892707 6.1428933 9.747274 -14.348489 12.795797 -0.0 0.0 -0.0 -0.0 0.0 -0.0 -0.0 0.0 -0.0 86.779396 50.4826 -5.2059426 -28.132307 -31.513689 69.720695 -0.17108211 11.712983 1.6677969 0.0 0.0 -0.0 0.0 0.0 -0.0 0.0 0.0 -0.0 7.7309012 5.4749126 0.41732216 0.0 0.0 -0.0 2.9055667 0.9650755 0.103008196 0.0 0.0 -0.0 10.278597 0.731881 0.026273511 0.0 0.0 -0.0 2.2216635 -0.73345095 -0.208321 -0.0 0.0 -0.0 -85.729706 14.820598 28.755201 28.3536 -37.752808 -79.9787 0.70646924 23.386929 -3.4813938 -0.0 0.0 0.0 -0.0 0.0 0.0 -0.0 0.0 0.0 -7.7309012 5.4749126 -0.41732216 -0.0 0.0 0.0 -2.9055667 0.9650755 -0.103008196 -0.0 0.0 0.0 -10.278597 0.731881 -0.026273511 -0.0 0.0 0.0 -2.2216635 -0.73345095 0.208321 -0.0 0.0 -0.0 7.7319007 -16.760792 -1.9338005 -0.16663025 35.910507 0.61566097 1.2966127 -12.7368765 6.5986776 0.0 0.0 0.0 20.637392 -29.4239 13.904912 0.8673207 57.195015 -1.5192921 3.9993227 -17.394417 8.768596
28.9393 82.3084 -25.73843 -117.23604 -79.64198 119.34001 8.108911 4.253348 -1.1625727 2.425839 -9.6624365 0.09905599 -3.6135092 13.217999 4.0220394 8.811585 -16.119993 8.989217 -0.0 0.0 -0.0 -0.0 0.0 -0.0 -0.0 0.0 -0.0 83.653305 49.309296 -2.2400408 -28.038193 -30.811104 68.5011 -0.0031995364 1.6187009 0.22648722 -0.0 -0.0 -0.0 -0.0 -0.0 -0.0 -0.0 -0.0 -0.0 7.7309012 5.4749126 0.41732216 -0.0 -0.0 -0.0 2.9055667 0.9650755 0.103008196 -0.0 -0.0 -0.0 10.278597 0.731881 0.026273511 -0.0 -0.0 -0.0 2.2216635 -0.73345095 -0.208321 -0.0 0.0 -0.0 -87.238594 16.050901 28.0652 28.292702 -38.406696 -81.1146 0.86185557 25.18403 -3.7927322 -0.0 0.0 0.0 -0.0 0.0 0.0 -0.0 0.0 0.0 -7.7309012 5.4749126 -0.41732216 -0.0 0.0 0.0 -2.9055667 0.9650755 -0.103008196 -0.0 0.0 0.0 -10.278597 0.731881 -0.026273511 -0.0 0.0 0.0 -2.2216635 -0.73345095 0.208321 -0.0 0.0 -0.0 8.873158 -14.079589 -2.7584555 -0.17267977 36.387794 0.6670642 0.88489026 -14.248382 4.7914143 0.0 0.0 0.0 17.882202 -28.245205 12.1360855 0.90578866 57.57811 -1.5030698 2.0001178 -19.865494 3.6490655
28.778402 82.94601 -23.101732 -82.493 -81.54957 83.960014 7.6428585 4.996777 4.0224304 3.0866458 -9.792546 1.6257439 -5.0268373 13.47387 0.490574 8.312087 -17.698307 2.2537978 -0.0 0.0 -0.0 -0.0 0.0 -0.0 0.0 0.0 -0.0 80.76211 41.762398 0.19176923 -27.468096 -28.045 64.10769 -0.1630233 11.431044 1.6287091 0.0 0.0 -0.0 0.0 0.0 -0.0 0.0 0.0 -0.0 7.7309012 5.4749126 0.41732216 0.0 0.0 -0.0 2.9055667 0.9650755 0.103008196 0.0 0.0 -0.0 10.278597 0.731881 0.026273511 0.0 0.0 -0.0 2.2216635 -0.73345095 -0.208321 0.0 0.0 -0.0 -88.25469 20.216713 26.351686 28.227299 -38.984997 -82.11759 1.0167121 27.374966 -4.1729474 -0.0 -0.0 -0.0 -0.0 -0.0 -0.0 -0.0 -0.0 -0.0 -7.7309012 5.4749126 -0.41732216 -0.0 -0.0 -0.0 -2.9055667 0.9650755 -0.103008196 -0.0 -0.0 -0.0 -10.278597 0.731881 -0.026273511 -0.0 -0.0 -0.0 -2.2216635 -0.73345095 0.208321 -0.0 0.0 -0.0 8.010939 -12.193114 -3.3723102 -0.17184389 36.087204 0.6839526 -0.3057601 -12.687298 0.9624283 0.0 0.0 0.0 12.343298 -24.588 9.570244 0.57541096 50.91968 -1.3611379 6.5855675 -22.216005 12.879601
30.064201 83.745 -19.92493 -22.240057 -78.66001 24.860046 2.641892 4.86443 6.599973 3.2757049 -10.720514 2.273374 -7.5033765 14.782588 -3.2945085 10.474502 -19.719305 -4.6345887 -0.0 0.0 -0.0 -0.0 0.0 -0.0 -0.0 -0.0 -0.0 75.079704 35.2188 6.0504885 -26.5405 -24.9118 59.112503 -0.13036072 9.676108 1.3742231 -0.0 0.0 0.0 -0.0 0.0 0.0 -0.0 0.0 0.0 7.7309012 5.4749126 0.41732216 -0.0 0.0 0.0 2.9055667 0.9650755 0.103008196 -0.0 0.0 0.0 10.278597 0.731881 0.026273511 -0.0 0.0 0.0 2.2216635 -0.73345095 -0.208321 -0.0 -0.0 -0.0 -88.8018 25.741901 23.845196 28.102303 -39.83969 -83.63279 1.3372464 31.090494 -4.8567634 -0.0 -0.0 -0.0 -0.0 -0.0 -0.0 -0.0 -0.0 -0.0 -7.7309012 5.4749126 -0.41732216 -0.0 -0.0 -0.0 -2.9055667 0.9650755 -0.103008196 -0.0 -0.0 -0.0 -10.278597 0.731881 -0.026273511 -0.0 -0.0 -0.0 -2.2216635 -0.73345095 0.208321 -0.0 0.0 -0.0 2.2308967 -18.458204 -5.7490735 -0.4147778 44.756218 0.86992604 -1.4599038 -5.1517625 -5.7321286 0.0 0.0 0.0 1.8985827 -21.469599 0.6948175 0.32131994 41.2329 -0.9973334 6.633345 -22.053886 13.3372
29.796202 82.7657 -18.078432 11.693932 -69.88602 -7.199872 -5.665207 7.459432 9.757282 1.7316533 -12.336492 2.838291 -9.241999 16.359104 -7.449401 13.359504 -23.397495 -12.039 -0.0 0.0 -0.0 -0.0 0.0 -0.0 -0.0 0.0 -0.0 70.63811 23.276604 11.250796 -25.422602 -22.034592 54.527294 -0.088698566 8.465479 1.1984249 -0.0 0.0 -0.0 -0.0 0.0 -0.0 -0.0 0.0 -0.0 7.7309012 5.4749126 0.41732216 -0.0 0.0 -0.0 2.9055667 0.9650755 0.103008196 -0.0 0.0 -0.0 10.278597 0.731881 0.026273511 -0.0 0.0 -0.0 2.2216635 -0.73345095 -0.208321 -0.0 0.0 -0.0 -88.16249 37.331104 20.1599 27.971603 -40.55479 -84.92649 1.7415928 34.662624 -5.5768895 -0.0 -0.0 -0.0 -0.0 -0.0 -0.0 -0.0 -0.0 -0.0 -7.7309012 5.4749126 -0.41732216 -0.0 -0.0 -0.0 -2.9055667 0.9650755 -0.103008196 -0.0 -0.0 -0.0 -10.278597 0.731881 -0.026273511 -0.0 -0.0 -0.0 -2.2216635 -0.73345095 0.208321 -0.0 0.0 -0.0 -13.298901 -32.7673 -16.889011 -1.2454708 62.39739 1.6050686 -0.71298844 4.486593 -9.56181 0.0 0.0 0.0 -8.971347 -20.1664 -4.117629 0.22241403 35.95776 -0.7306897 4.303338 -20.836891 8.9525385
28.1418 82.4688 -16.800331 15.638988 -61.424004 -12.259958 -9.792008 13.0979 11.44591 0.046461023 -14.19801 2.926893 -11.306297 18.757294 -10.14271 14.514899 -27.941406 -16.978495 -0.0 0.0 -0.0 -0.0 0.0 -0.0 -0.0 0.0 -0.0 67.2444 12.022402 14.05739 -24.742714 -20.552578 52.074997 -0.032808743 5.1626916 0.72772336 -0.0 0.0 0.0 -0.0 0.0 0.0 -0.0 0.0 0.0 7.7309012 5.4749126 0.41732216 -0.0 0.0 0.0 2.9055667 0.9650755 0.103008196 -0.0 0.0 0.0 10.278597 0.731881 0.026273511 -0.0 0.0 0.0 2.2216635 -0.73345095 -0.208321 -0.0 0.0 -0.0 -88.426 47.890694 16.3335 27.892498 -40.949997 -85.63909 2.0017524 36.74244 -6.0226583 -0.0 0.0 0.0 -0.0 0.0 0.0 -0.0 0.0 0.0 -7.7309012 5.4749126 -0.41732216 -0.0 0.0 0.0 -2.9055667 0.9650755 -0.103008196 -0.0 0.0 0.0 -10.278597 0.731881 -0.026273511 -0.0 0.0 0.0 -2.2216635 -0.73345095 0.208321 -0.0 0.0 -0.0 -25.952904 -38.073303 -24.494703 -1.330692 63.525265 1.7882506 -2.3171077 -4.0999985 -10.260317 0.0 0.0 0.0 -13.704976 -16.788805 -1.8216528 0.18667002 33.727295 -0.6640213 0.9077147 -20.173496 1.0851315
24.130804 83.6884 -16.067831 19.176052 -55.898 -13.989922 -10.401904 13.116402 11.391211 -0.52550465 -14.301596 2.8296282 -11.154286 20.736399 -11.373004 13.210102 -30.644308 -19.759893 -0.0 0.0 -0.0 -0.0 0.0 -0.0 -0.0 0.0 -0.0 65.782104 6.819942 15.372511 -24.667992 -20.40101 51.7982 -0.021933248 4.223259 0.59484977 -0.0 0.0 -0.0 -0.0 0.0 -0.0 -0.0 0.0 -0.0 7.7309012 5.4749126 0.41732216 -0.0 0.0 -0.0 2.9055667 0.9650755 0.103008196 -0.0 0.0 -0.0 10.278597 0.731881 0.026273511 -0.0 0.0 -0.0 2.2216635 -0.73345095 -0.208321 -0.0 0.0 -0.0 -93.724594 54.5439 17.233496 27.821999 -41.253403 -86.2092 2.0938613 37.43069 -6.175298 -0.0 0.0 0.0 -0.0 0.0 0.0 -0.0 0.0 0.0 -7.7309012 5.4749126 -0.41732216 -0.0 0.0 0.0 -2.9055667 0.9650755 -0.103008196 -0.0 0.0 0.0 -10.278597 0.731881 -0.026273511 -0.0 0.0 0.0 -2.2216635 -0.73345095 0.208321 -0.0 0.0 -0.0 -25.557598 -38.8892 -16.967901 -0.57134414 49.565197 1.0372356 -2.8758466 -10.817321 -8.707251 0.0 0.0 0.0 -14.703044 -12.478658 -1.8432357 0.11285614 27.445992 -0.5455349 -0.8084617 -18.396809 -3.3282554
